<svg xmlns="http://www.w3.org/2000/svg" version="1.1" xmlns:xlink="http://www.w3.org/1999/xlink" width="1000" height="1000"><metadata><rdf:RDF xmlns:rdf="http://www.w3.org/1999/02/22-rdf-syntax-ns#" xmlns:dc="http://purl.org/dc/elements/1.1/"><rdf:Description><dc:creator>RealFaviconGenerator</dc:creator><dc:source>https://realfavicongenerator.net</dc:source></rdf:Description></rdf:RDF></metadata><g clip-path="url(#SvgjsClipPath1105)"><rect width="1000" height="1000" fill="#ffffff"></rect><g transform="matrix(2,0,0,2,0,0)"><svg xmlns="http://www.w3.org/2000/svg" width="500" height="500" viewBox="0 0 500 500" fill="none"><path d="M263.858 406.709C263.858 408.285 264.332 409.624 265.28 410.727C266.227 411.673 267.649 412.303 269.544 412.618L297.497 415.691C298.445 415.848 299.076 416.085 299.392 416.4C299.866 416.558 300.103 416.952 300.103 417.582C300.103 418.527 299.471 419 298.208 419H198.002C197.686 419 197.37 418.921 197.054 418.764C196.739 418.448 196.581 418.133 196.581 417.818C196.581 417.345 196.739 416.952 197.054 416.636C197.528 416.321 198.16 416.164 198.95 416.164L217.427 413.091C219.164 412.618 220.428 411.988 221.217 411.2C222.165 410.255 222.639 409.152 222.639 407.891V226.364C222.639 225.261 222.402 224.315 221.928 223.527C221.454 222.582 220.586 222.03 219.322 221.873L190.658 216.673C190.184 216.515 189.79 216.358 189.474 216.2C189.158 215.885 189 215.491 189 215.018C189 214.545 189.158 214.23 189.474 214.073C189.948 213.758 190.342 213.6 190.658 213.6H225.718L223.35 215.491V211.236C223.35 205.879 222.323 200.6 220.27 195.4C218.217 190.042 215.769 184.527 212.926 178.855C210.241 173.182 207.794 167.115 205.583 160.655C203.529 154.036 202.503 146.788 202.503 138.909C202.503 121.103 207.872 107 218.612 96.6C229.509 86.2 243.722 81 261.252 81C272.15 81 281.309 82.8121 288.732 86.4364C296.155 90.0606 301.682 94.9455 305.315 101.091C309.105 107.236 311 113.933 311 121.182C311 128.588 309.184 134.182 305.551 137.964C301.919 141.588 297.339 143.4 291.812 143.4C286.126 143.4 281.309 141.509 277.361 137.727C273.413 133.788 271.439 128.352 271.439 121.418V103.218C271.439 97.2303 269.939 92.6606 266.938 89.5091C264.095 86.3576 259.515 84.7818 253.198 84.7818C243.722 84.7818 236.142 87.9333 230.456 94.2364C224.771 100.539 221.928 109.206 221.928 120.236C221.928 127.958 223.271 135.364 225.955 142.455C228.798 149.388 232.272 156.085 236.379 162.545C240.643 168.848 244.828 174.994 248.934 180.982C253.198 186.812 256.672 192.485 259.357 198C262.2 203.358 263.621 208.636 263.621 213.836V217.618L261.252 213.6H303.183C303.972 213.6 304.525 213.758 304.841 214.073C305.157 214.23 305.315 214.545 305.315 215.018C305.315 215.964 304.841 216.673 303.893 217.145C303.104 217.618 301.919 217.855 300.34 217.855H263.858V406.709Z" fill="#B84A2F"></path></svg></g></g><defs><clipPath id="SvgjsClipPath1105"><rect width="1000" height="1000" x="0" y="0" rx="200" ry="200"></rect></clipPath></defs></svg>